# xmcd
#
# Track frame offsets:
#	150
#	15824
#	31696
#	48103
#	63891
#	77784
#	95227
#	112549
#	127829
#	151044
#	168936
#	183082
#	201705
#	218993
#	235153
#
# Disc length: 3374 seconds
#
# Revision: 1
# Processed by: cddbd v1.5.2PL0 Copyright (c) Steve Scherf et al.
# Submitted via: audiograbber 1.83.01
#
DISCID=ab0d2c0f
DTITLE=Various Artist - The Essential New Country CD2
DYEAR=2010
DGENRE=Country
TTITLE0=Martina McBride - Independence Day
TTITLE1=Brad Paisley - Mud On The Tires
TTITLE2=Gretchen Wilson - Redneck Woman
TTITLE3=Brooks and Dunn - Put A Girl In It
TTITLE4=Tracy Byrd - Ten Rounds With Jose Cuervo
TTITLE5=Aaron Lines - Turn It Up (I Like The Sound Of That)
TTITLE6=Diamond Rio - Beautiful Mess
TTITLE7=Big and Rich - Save A Horse (Ride A Cowboy)
TTITLE8=Alan Jackson - Good Time
TTITLE9=Keith Anderson - I Still Miss You
TTITLE10=Jake Owen - Don't Think I Can't Love You
TTITLE11=Miranda Lambert - Famous In A Small Town
TTITLE12=Pat Green - Feels Just Like It Should
TTITLE13=Buddy Jewell - Sweet Southern Comfort
TTITLE14=Andy Griggs - She Thinks She Needs Me
EXTD=
EXTT0=
EXTT1=
EXTT2=
EXTT3=
EXTT4=
EXTT5=
EXTT6=
EXTT7=
EXTT8=
EXTT9=
EXTT10=
EXTT11=
EXTT12=
EXTT13=
EXTT14=
PLAYORDER=
